<?xml version="1.0" encoding="iso-8859-1"?>
<!-- Generator: Adobe Illustrator 17.1.0, SVG Export Plug-In . SVG Version: 6.00 Build 0)  -->
<!DOCTYPE svg PUBLIC "-//W3C//DTD SVG 1.1//EN" "http://www.w3.org/Graphics/SVG/1.1/DTD/svg11.dtd">
<svg version="1.1" id="Capa_1" xmlns="http://www.w3.org/2000/svg" xmlns:xlink="http://www.w3.org/1999/xlink" x="0px" y="0px"
	 viewBox="0 0 478 478" style="enable-background:new 0 0 478 478;" xml:space="preserve">
<path fill="#333" d="M454.855,165.562c-5.268,0-10.259,1.784-14.433,5.16l-23.966,19.379c-2.347,1.898-5.301,2.943-8.319,2.943H69.863
	c-3.018,0-5.973-1.045-8.32-2.943l-23.965-19.379c-4.174-3.376-9.165-5.16-14.433-5.16C10.383,165.562,0,175.925,0,188.662
	c0,6.879,3.034,13.345,8.324,17.742l31.804,26.436c9.042,7.518,20.498,11.657,32.258,11.657h11.387
	c-5.651,7.151-9.037,16.17-9.037,25.971c0,23.143,18.828,41.971,41.971,41.971s41.97-18.828,41.97-41.971
	c0-9.801-3.386-18.82-9.037-25.971h184.427c-5.651,7.151-9.037,16.17-9.037,25.971c0,23.143,18.828,41.971,41.971,41.971
	s41.971-18.828,41.971-41.971c0-9.801-3.386-18.82-9.037-25.971h5.68c11.76,0,23.216-4.14,32.257-11.656l31.805-26.437
	c5.29-4.397,8.324-10.863,8.324-17.742C478,175.925,467.617,165.562,454.855,165.562z M142.676,270.468
	c0,14.32-11.65,25.971-25.97,25.971c-14.32,0-25.971-11.65-25.971-25.971s11.65-25.971,25.971-25.971
	C131.026,244.497,142.676,256.147,142.676,270.468z M392.971,270.468c0,14.32-11.65,25.971-25.971,25.971
	s-25.971-11.65-25.971-25.971s11.65-25.971,25.971-25.971S392.971,256.147,392.971,270.468z M459.449,194.1l-31.805,26.437
	c-6.175,5.134-13.999,7.961-22.029,7.961H72.386c-8.031,0-15.854-2.827-22.03-7.961L18.551,194.1
	C16.93,192.752,16,190.771,16,188.662c0-4.444,3.633-7.101,7.145-7.101c1.587,0,3.059,0.539,4.373,1.602l23.965,19.379
	c5.185,4.192,11.712,6.502,18.381,6.502h338.273c6.668,0,13.196-2.31,18.38-6.502l23.965-19.379
	c1.314-1.063,2.785-1.602,4.373-1.602c3.512,0,7.145,2.656,7.145,7.101C462,190.771,461.07,192.752,459.449,194.1z M94.423,270.468
	c0-12.287,9.996-22.283,22.283-22.283c4.418,0,8,3.582,8,8s-3.582,8-8,8c-3.464,0-6.283,2.818-6.283,6.283s2.819,6.283,6.283,6.283
	c2.429,0,4.598-1.359,5.66-3.548c1.93-3.976,6.715-5.633,10.69-3.704c3.975,1.93,5.633,6.716,3.704,10.69
	c-3.704,7.631-11.576,12.562-20.054,12.562C104.419,292.751,94.423,282.755,94.423,270.468z M345.007,270.468
	c0-12.287,9.996-22.283,22.283-22.283c4.418,0,8,3.582,8,8s-3.582,8-8,8c-3.464,0-6.283,2.818-6.283,6.283s2.819,6.283,6.283,6.283
	c2.429,0,4.598-1.359,5.661-3.549c1.93-3.974,6.716-5.63,10.69-3.703c3.975,1.93,5.633,6.717,3.703,10.691
	c-3.704,7.63-11.576,12.561-20.054,12.561C355.003,292.751,345.007,282.755,345.007,270.468z"/>
<g>
</g>
<g>
</g>
<g>
</g>
<g>
</g>
<g>
</g>
<g>
</g>
<g>
</g>
<g>
</g>
<g>
</g>
<g>
</g>
<g>
</g>
<g>
</g>
<g>
</g>
<g>
</g>
<g>
</g>
</svg>
